<svg xmlns="http://www.w3.org/2000/svg" xmlns:xlink="http://www.w3.org/1999/xlink" version="1.1" x="0px" y="0px" viewBox="0 0 100 100" enable-background="new 0 0 100 100" xml:space="preserve"><path d="M70.566,61.549c-4.123,0-7.002,3.054-7.002,7.426c0,4.562,3.141,8.272,7.002,8.272c3.862,0,7.004-3.711,7.004-8.272  C77.57,64.603,74.69,61.549,70.566,61.549z M70.566,74.247c-2.207,0-4.002-2.365-4.002-5.272c0-2.688,1.571-4.426,4.002-4.426  c2.433,0,4.004,1.737,4.004,4.426C74.57,71.882,72.774,74.247,70.566,74.247z M70.564,52.625c-11.545,0-20.938,9.393-20.938,20.938  S59.02,94.5,70.564,94.5c11.544,0,20.936-9.393,20.936-20.938S82.108,52.625,70.564,52.625z M70.564,91.5  c-3.311,0-6.404-0.917-9.068-2.488c0.02-0.717,0.063-1.616,0.106-1.861c0.778-4.301,5.304-5.204,8.964-5.204  c2.53,0,8.476,0.558,9.038,5.721c0.018,0.163,0.031,0.82,0.036,1.339C76.975,90.581,73.878,91.5,70.564,91.5z M82.517,86.899  c-0.775-4.985-5.197-7.952-11.95-7.952c-6.691,0-11.034,2.795-11.917,7.677c-0.014,0.077-0.025,0.175-0.037,0.276  c-3.663-3.287-5.985-8.04-5.985-13.337c0-9.891,8.047-17.938,17.938-17.938c9.89,0,17.936,8.047,17.936,17.938  C88.5,78.859,86.179,83.613,82.517,86.899z M54.107,47.758h-33.75c-1.104,0-2,0.896-2,2s0.896,2,2,2h33.75c1.104,0,2-0.896,2-2  S55.212,47.758,54.107,47.758z M46.667,76.393H20c-4.411,0-8-3.589-8-8V20c0-4.411,3.589-8,8-8h34.465c4.411,0,8,3.589,8,8v26.667  c0,1.104,0.896,2,2,2s2-0.896,2-2V20c0-6.617-5.383-12-12-12H20C13.383,8,8,13.383,8,20v48.393c0,6.617,5.383,12,12,12h26.667  c1.104,0,2-0.896,2-2S47.771,76.393,46.667,76.393z M54.107,39.972h-33.75c-1.104,0-2,0.896-2,2s0.896,2,2,2h33.75  c1.104,0,2-0.896,2-2S55.212,39.972,54.107,39.972z M54.107,32.186h-33.75c-1.104,0-2,0.896-2,2s0.896,2,2,2h33.75  c1.104,0,2-0.896,2-2S55.212,32.186,54.107,32.186z M47.895,55.544H20.357c-1.104,0-2,0.896-2,2s0.896,2,2,2h27.537  c1.104,0,2-0.896,2-2S48.999,55.544,47.895,55.544z M45.154,67.33c1.104,0,2-0.896,2-2s-0.896-2-2-2H20.357c-1.104,0-2,0.896-2,2  s0.896,2,2,2H45.154z M42.445,24.5c1.104,0,2-0.896,2-2s-0.896-2-2-2H32.02c-1.104,0-2,0.896-2,2s0.896,2,2,2H42.445z"></path></svg>